<?xml version="1.0" encoding="utf-8"?>
<!-- Generator: Adobe Illustrator 19.0.0, SVG Export Plug-In . SVG Version: 6.00 Build 0)  -->
<svg version="1.1" id="layer" xmlns="http://www.w3.org/2000/svg" xmlns:xlink="http://www.w3.org/1999/xlink" x="0px" y="0px"
	 viewBox="-153 -46 652 652" style="enable-background:new -153 -46 652 652;" xml:space="preserve">
<path d="M-131,223.6l0.3-14.4h55.9l0.4,14.4h-2.8v-0.3c-0.9-5.4-2.3-8.1-4-9.5c-2.1-1.3-4.6-1.8-7-1.5h-10.1v38.8
	c-0.3,3.5,0,7,0.9,10.4c0.8,1.7,2.4,2.2,6,2.2h3.2v3h-29.1v-3h3.2c3.6,0,5.2-0.5,6-2c0.9-3.2,1.2-6.5,0.9-9.8v-39.6h-11.1
	c-2.5-0.3-5,0.6-6.6,2.5c-1.5,2.6-2.6,5.5-3,8.6v0.2H-131z M-48.7,266.8v-3h0.3c3,0,4.3,0,4.9-1.1c0.8-2.7,1-5.5,0.7-8.2v-10.3
	c0-3,0-7.5-3.2-9.2c-1.9-1-4.2-1.1-6.2-0.4c-1.6,0.7-3.1,1.6-4.3,2.9c-0.7,0.6-1.3,1.3-2,2s-1.7,1.6-1.7,2.1v12.9
	c-0.3,2.7-0.1,5.5,0.6,8.1c0.6,1.1,1.7,1.2,4.5,1.2h0.3v3h-18v-3h0.3c3,0,4.4,0,5-1.1c0.8-2.7,1-5.5,0.7-8.3V221c0.2-2,0-4.1-0.7-6
	c-0.6-1.1-1.9-1.6-4.7-1.6h-0.3v-3h0.3c3.7,0,7.4-0.6,11-1.8h1.1v28.7c2.9-3.9,7.3-6.3,12.2-6.6c3.2-0.3,6.4,0.8,8.9,3
	c2.1,2.5,3.2,5.7,3,9v11.8c-0.3,2.8-0.1,5.6,0.7,8.2c0.6,1.1,1.9,1.1,4.8,1.1h0.3v3H-48.7z M-21.9,263.7c-4-3.6-6.2-8.7-6-14.1
	c-0.1-5,1.7-9.8,4.9-13.6c3.1-3.5,7.6-5.6,12.3-5.5c7.8-0.2,14.3,5.9,14.7,13.7v0.3h-24v3.8c-0.1,3.4,0.4,6.8,1.4,10
	c1.3,4.1,5.2,6.8,9.5,6.6c4.3,0,8.2-2.4,10.1-6.2v-0.2h3v0.4c-2.2,6-8,9.8-14.3,9.4C-14.6,268.2-18.7,266.5-21.9,263.7 M-3.9,241.5
	c0-0.4,0-0.7,0-1.1c0.1-3.7-2.8-6.8-6.5-7c-0.2,0-0.4,0-0.6,0c-4.5,0.1-8.3,3.6-8.8,8.1L-3.9,241.5z M16.9,266.4V263h3.3
	c11.2,0,11.2-3,11.2-19.9v-42.4c0-19.3-1.3-18.7-14.5-18.7v-3.5c9.4-0.4,24.3-0.9,31.8-0.9c5.1,0,36-1.1,36,21
	c0,16.9-18.7,19.8-24.5,20.6c14.7,0.8,29.3,6.5,29.3,23.1c0,19.4-17,24.2-32.4,24.2H16.9z M44.1,217.5c16.9,0.4,27-1.9,27-18.3
	c0-15.9-9.3-19.3-27-17.7V217.5z M44.1,240.1c0,20.2,0,22.7,10.6,22.7c19.5,0,20.6-13.4,20.6-20.7c0-14.2-6-22.2-31.2-20.9V240.1z
	 M114.5,248.2c0,13.5,0,14.7,7.8,14.7h1.9v3.5H96.1V263c9,0,9,0,9-14.7v-15c0-14.7,0-14.6-9-14.6V215c5.1-0.8,10.1-2,15-3.6l0.9-0.3
	c1.4,4.4,2,9,1.9,13.6c4.1-9.8,12-13.6,17-13.6c4.8-0.2,8.8,3.4,9.3,8.1c0,2.5-1.9,4.5-4.4,4.5c-2.3-0.1-4.2-1.8-4.7-4
	c-0.7-1.5-1.6-3.5-3.7-3.5c-3.7,0-12.9,6.4-12.9,19.9L114.5,248.2z M161.4,248.2c0,11.6-0.9,14.7,7.3,14.7h2v3.5H142V263h2.3
	c6,0,7.8-0.3,7.8-9.5v-20.7c0-14.6,0-14.6-9.4-14.6v-3.6c5.9-0.6,11.7-1.7,17.3-3.5h1.3L161.4,248.2z M155.5,177.1
	c3.7,0.1,6.7,3.2,6.6,6.9c0.1,3.7-2.9,6.9-6.6,7c0,0,0,0,0,0c-3.8-0.1-6.8-3.1-6.8-6.9C148.6,180.3,151.6,177.2,155.5,177.1
	C155.4,177.1,155.5,177.1,155.5,177.1 M192,218.1v29.4c0,8.2,0,15.7,8,15.7c3.3-0.3,6.1-2.3,7.4-5.3l2.7,1.9
	c-2.5,5.3-7.9,8.7-13.8,8.6c-4.8,0.1-9.2-2.4-11.6-6.5c-1.7-3.2-2-6-2-15.7v-28.2H175v-3.6c6-0.3,12.4-4.8,14.3-18h2.7v18h15.6v3.6
	L192,218.1z M232.1,247.6c0,11.6-0.9,15.3,7.3,15.3h2v3.5h-28.7V263h2.3c6,0,7.8-1.3,7.8-10.6v-19.6c0-14.6-0.8-14.6-10.1-14.6v-3.6
	c6.1-0.6,12.1-1.7,18-3.5h1.4L232.1,247.6z M226.1,177.1c3.7,0.1,6.7,3.2,6.6,6.9c0.1,3.7-2.9,6.9-6.6,7c0,0,0,0,0,0
	c-3.8-0.1-6.8-3.1-6.8-6.9C219.2,180.3,222.2,177.2,226.1,177.1C226,177.1,226,177.1,226.1,177.1 M249.1,250.6h2.8
	c1.3,6.4,6,14.5,15.4,14.5c4.9,0.5,9.3-3.2,9.8-8.1c0-0.3,0-0.6,0-0.9c0-6.9-6-9.7-12.9-13.1c-6.4-3.2-15-7.4-15-17.1
	c0-6.4,3-14.7,14.2-14.7c4.5,0,8.8,2,11.6,5.6c1-1.5,1.8-3,2.5-4.7h2.4v16.5h-2.6c-1.1-5-5-13.8-13.6-13.8c-4.2-0.5-8,2.5-8.6,6.7
	c0,0.3-0.1,0.5-0.1,0.8c0,6,6.4,9,12.5,11.8c7.1,3.2,15.9,7.3,15.9,18.9c0,9.9-6.6,15.7-16.1,15.7c-5,0.2-9.8-1.7-13.2-5.4
	c-1.2,1.5-2.1,3.2-2.6,5.1h-2.5L249.1,250.6z M203,354.9h2.8c1.3,6.4,6,14.5,15.4,14.5c4.9,0.5,9.3-3.2,9.8-8.1c0-0.3,0-0.6,0-0.9
	c0-6.9-6-9.7-12.9-13.1c-6.4-3.2-14.7-7.4-15-17.1c-0.2-6.7,3.2-14.7,14.2-14.7c4.6,0,8.9,2.1,11.7,5.7c1-1.5,1.8-3,2.5-4.7h2.4
	v16.5h-2.7c-1.1-5.1-5-13.9-13.6-13.9c-4.2-0.5-8.1,2.5-8.6,6.8c0,0.2,0,0.5-0.1,0.7c0,6,6.4,9,12.5,11.8c7,3.2,15.9,7.3,15.9,18.8
	c0.3,8.4-6.3,15.4-14.8,15.7c-0.4,0-0.9,0-1.3,0c-5,0.1-9.8-2.1-13.1-6c-1.3,1.6-2.2,3.4-2.7,5.3h-2.5L203,354.9z M343.7,247.6
	c0,14.6,0,15.3,9,15.3v3.5h-27.5V263c9,0,9-0.7,9-15.3v-16.1c0-12.3-3.8-16.3-11.6-15.9c-6,0.3-12,6.2-16.2,11.7v20.2
	c0,14.2,0,15.3,8.4,15.3v3.5h-27V263c9.3,0,9.3-0.5,9.3-15.3v-51.9c0-9.3,0-12.3-8.8-12.3v-3.6c5.8-0.1,11.6-1,17.1-2.8h0.9v45
	c6.4-7.5,12.4-10.9,19.3-10.9c11.8,0,17.8,6.2,17.8,18.3L343.7,247.6z M108,282.8h27v3.5h-3.3c-11.6,0-11.8,1.1-11.8,19v42
	c0,17,0,19.9,11.2,19.9h4v3.5H93v-3.4h3c11.2,0,11.2-3,11.2-19.9V293l-34.8,77.7h-3l-34.8-79.1V350c0,12,4,16.5,13.8,17.4v3.5H17
	v-3.6c8.1-0.8,13.8-3.3,13.8-18.2v-44.3c0-17.8,0-18.5-11.4-18.5H17v-3.5h26.7l31.9,72L108,282.8z"/>
<path d="M187.3,351.8c0,14.2,0,15.4,8.1,15.4v3.5c-4.8-0.2-9.7,0.5-14.2,2.1h-0.9c-1.7-3.8-2.5-8-2.3-12.2
	c-4.1,7.4-11.9,12-20.3,12.2c-15.4,0-16.5-12.2-16.5-17.8v-18.7c0-14.5,0-15.3-8.8-15.3v-3.5h18v36.7c0,5,0,13.4,10.2,13.4
	c9.9-0.3,17.7-8.7,17.4-18.6c0-0.1,0-0.2,0-0.4v-12.4c0-14.8,0-15.3-9.3-15.3v-3.5h18.6L187.3,351.8z M258.3,336.3
	c-0.2,1.9-0.3,3.4-0.3,5.6c0,6.8,0.3,27.5,17.4,27.5c7.3,0.3,14-3.9,16.9-10.6h3c-0.4,1.9-5.6,14.1-21.6,14.1
	c-11.7,0-26.4-9-26.4-28.3c0-16.5,10.9-29.1,25.9-29.1c11.8-0.3,21.7,9,22.2,20.8L258.3,336.3z M283.9,333c0.2-0.9,0.3-1.8,0.3-2.7
	c0.5-6.1-4-11.5-10.1-12c-0.5,0-1-0.1-1.5,0c-11.8,0-13.6,11.2-14.1,14.6L283.9,333z M354.1,351.9c0,14.2,0,15.4,8.1,15.4v3.5
	c-4.8-0.2-9.7,0.5-14.2,2.1h-0.9c-1.7-4-2.5-8.4-2.3-12.8c-4,7.5-11.8,12.4-20.3,12.8c-15.4,0-16.5-12.2-16.5-17.8v-18.7
	c0-14.5,0-15.3-8.8-15.3v-3.5l18,0.6v36.2c0,5,0,13.4,10.2,13.4c10-0.5,17.7-9,17.3-19v-12.4c0-14.8,0-15.3-9.3-15.3v-3.5h18.6
	L354.1,351.9z M403.1,320.6c-9,0-14.5,7.4-17.1,11.4v20c0,14.3,0,15.3,8.8,15.3v3.5h-26.8v-3.5c8.8,0,8.8-0.8,8.8-15.3v-14.7
	c0-14.5,0-15.3-8.8-15.3v-3.5c4.9-0.7,9.8-1.7,14.6-3h1.7c1,3.6,1.6,7.3,1.7,11c5.6-6.6,12.5-11,20.6-11c12,0,15.4,7.3,16.1,11.6
	c6.4-7.4,13-11.6,21-11.6c11.7,0,16.6,6.4,16.6,17.3v19.3c0,14.2,0,15.3,8.8,15.3v3.5h-27.2v-3.5c9,0,9-0.7,9-15.3v-15.5
	c0-7,0-15.9-10.7-15.9c-9,0-14.5,7.4-17.1,11.4v20c0,14.3,0,15.3,8.8,15.3v3.5h-26.8v-3.5c8.8,0,8.8-1.1,8.8-15.3v-14.7
	c0-5.8,1.1-16.7-10.8-16.7"/>
</svg>
